<svg width="232" height="50" viewBox="0 0 232 50" fill="none" xmlns="http://www.w3.org/2000/svg">
<path d="M48.7508 0H32.5368V16.5377L48.7508 0Z" fill="#FB5B31"/>
<path d="M0 0.0370482V14.5525H13.5947V50L27.8095 35.4509V0.0370482H0Z" fill="#FB5B31"/>
<path d="M85.2363 34.7745C79.46 34.7745 75.2144 30.3062 75.2144 24.4112C75.2144 18.5161 79.46 14.4684 85.2363 14.4684H90.2473C96.1886 14.4684 100.299 18.5195 100.299 24.4112C100.299 30.3028 96.083 34.7745 90.2473 34.7745H85.2363ZM90.2473 29.6063C93.2031 29.6063 95.2583 27.5404 95.2583 24.6635C95.2583 21.7867 93.1767 19.6063 90.2473 19.6063H85.2363C82.3894 19.6063 80.2781 21.7564 80.2781 24.6635C80.2781 27.5706 82.3333 29.6063 85.2363 29.6063H90.2473Z" fill="white"/>
<path d="M122.293 34.7745L117.638 29.3573H112.709V25.0269H119.858C121.527 25.0269 122.543 23.967 122.543 22.3183C122.543 20.6696 121.531 19.6097 119.858 19.6097H110.272V34.7779H105.234V14.4684H119.858C124.651 14.4684 127.498 17.4562 127.498 22.1231C127.498 25.4475 125.964 27.6817 123.526 28.6877L129.468 34.7779H122.293V34.7745Z" fill="white"/>
<path d="M151.319 34.7745L146.665 29.3573H141.736V25.0269H148.885C150.554 25.0269 151.57 23.967 151.57 22.3183C151.57 20.6696 150.557 19.6097 148.885 19.6097H139.302V34.7779H134.264V14.4684H148.888C153.681 14.4684 156.528 17.4562 156.528 22.1231C156.528 25.4475 154.994 27.6817 152.557 28.6877L158.498 34.7779H151.323L151.319 34.7745Z" fill="white"/>
<path d="M163.294 34.7745V14.4684H181.669V19.6063H168.332V29.6063H181.725V34.7745H163.294ZM170.77 22.5134H180.904V26.3963H170.77V22.5134Z" fill="white"/>
<path d="M191.536 22.8768V35.0538H186.716V17.5134C186.716 15.6427 187.703 14.4684 189.237 14.4684C189.976 14.4684 190.497 14.7207 191.183 15.3634L203.234 26.6756V14.4953H208.053V32.288C208.053 34.1588 207.041 35.3331 205.533 35.3331C204.794 35.3331 204.247 35.0807 203.59 34.4381L191.539 22.8735L191.536 22.8768Z" fill="white"/>
<path d="M219.87 34.7745V19.6097H212.777V14.4684H232V19.6097H224.937V34.7745H219.87Z" fill="white"/>
<path d="M58.0371 34.7745V19.6063H50.9445V14.4684H70.1704V19.6063H63.1042V34.7745H58.0371Z" fill="white"/>
</svg>
